<svg width="128" height="128" viewBox="0 0 128 128" fill="none" xmlns="http://www.w3.org/2000/svg">
<rect width="128" height="128" fill="black"/>
<g clip-path="url(#clip0_421_2)">
<path d="M80.875 67.375C80.875 71.8505 79.0971 76.1427 75.9324 79.3074C72.7677 82.4721 68.4755 84.25 64 84.25C59.5245 84.25 55.2322 82.4721 52.0676 79.3074C48.9029 76.1427 47.125 71.8505 47.125 67.375C47.125 62.8995 48.9029 58.6072 52.0676 55.4426C55.2322 52.2779 59.5245 50.5 64 50.5C68.4755 50.5 72.7677 52.2779 75.9324 55.4426C79.0971 58.6072 80.875 62.8995 80.875 67.375Z" fill="white"/>
<path d="M23.5 37C19.9196 37 16.4858 38.4223 13.9541 40.9541C11.4223 43.4858 10 46.9196 10 50.5L10 91C10 94.5804 11.4223 98.0142 13.9541 100.546C16.4858 103.078 19.9196 104.5 23.5 104.5H104.5C108.08 104.5 111.514 103.078 114.046 100.546C116.578 98.0142 118 94.5804 118 91V50.5C118 46.9196 116.578 43.4858 114.046 40.9541C111.514 38.4223 108.08 37 104.5 37H96.589C93.0089 36.9992 89.5756 35.5764 87.0445 33.0445L81.4555 27.4555C78.9244 24.9236 75.4911 23.5008 71.911 23.5H56.089C52.5089 23.5008 49.0757 24.9236 46.5445 27.4555L40.9555 33.0445C38.4243 35.5764 34.9911 36.9992 31.411 37H23.5ZM26.875 50.5C25.9799 50.5 25.1215 50.1444 24.4885 49.5115C23.8556 48.8785 23.5 48.0201 23.5 47.125C23.5 46.2299 23.8556 45.3715 24.4885 44.7385C25.1215 44.1056 25.9799 43.75 26.875 43.75C27.7701 43.75 28.6285 44.1056 29.2615 44.7385C29.8944 45.3715 30.25 46.2299 30.25 47.125C30.25 48.0201 29.8944 48.8785 29.2615 49.5115C28.6285 50.1444 27.7701 50.5 26.875 50.5ZM87.625 67.375C87.625 73.6407 85.1359 79.6498 80.7054 84.0804C76.2748 88.5109 70.2657 91 64 91C57.7343 91 51.7252 88.5109 47.2946 84.0804C42.8641 79.6498 40.375 73.6407 40.375 67.375C40.375 61.1093 42.8641 55.1002 47.2946 50.6696C51.7252 46.2391 57.7343 43.75 64 43.75C70.2657 43.75 76.2748 46.2391 80.7054 50.6696C85.1359 55.1002 87.625 61.1093 87.625 67.375Z" fill="white"/>
</g>
<defs>
<clipPath id="clip0_421_2">
<rect width="108" height="108" fill="white" transform="translate(10 10)"/>
</clipPath>
</defs>
</svg>
